<svg xmlns="http://www.w3.org/2000/svg" viewBox="0 0 282.26 281.86"><defs><style>.cls-1{fill:#f20050;}</style></defs><g id="Layer_2" data-name="Layer 2"><g id="Layer_1-2" data-name="Layer 1"><path class="cls-1" d="M68.27,106.1a11.67,11.67,0,0,1,.77-1.34A18.32,18.32,0,0,0,35.37,90.38a13.06,13.06,0,0,1-1,1.67A117.45,117.45,0,0,0,90.33,247,11.82,11.82,0,1,1,80,268.32,141.16,141.16,0,0,1,13.93,80a11.72,11.72,0,0,1,1.26-2,42,42,0,0,1,54.88-17.5h0a42,42,0,0,1,19.62,56h0a11.78,11.78,0,0,1-.86,1.51,57.18,57.18,0,0,0,16.62,67.86,11.83,11.83,0,0,1-14.8,18.47A80.89,80.89,0,0,1,68.27,106.1Z"/><path class="cls-1" d="M147.25,221.72a10,10,0,0,1-1.55,0,18.32,18.32,0,0,0,4.38,36.34,11.39,11.39,0,0,1,1.94,0A117.46,117.46,0,0,0,258.28,132.16a11.82,11.82,0,1,1,23.57-1.74,141.15,141.15,0,0,1-130,151.41,11.26,11.26,0,0,1-2.4-.07A42,42,0,0,1,106.83,243h0a42,42,0,0,1,38.66-45v0a12.63,12.63,0,0,1,1.74,0,57.17,57.17,0,0,0,50.46-48.32,11.83,11.83,0,1,1,23.39,3.58,80.87,80.87,0,0,1-73.83,68.46Z"/><path class="cls-1" d="M207.89,95.52a11.22,11.22,0,0,1,.79,1.34,18.16,18.16,0,0,0,10.77,6.41A18.32,18.32,0,0,0,238,74.89a11.82,11.82,0,0,1-1-1.69A117.43,117.43,0,0,0,74.81,44.15,11.82,11.82,0,1,1,61.52,24.61,141.15,141.15,0,0,1,257.65,61.5a12.48,12.48,0,0,1,1.15,2.12,42,42,0,0,1-12.29,56.28h0a42,42,0,0,1-58.29-11h0a11.24,11.24,0,0,1-.87-1.5,57.16,57.16,0,0,0-67.07-19.54,11.83,11.83,0,0,1-8.6-22,80.87,80.87,0,0,1,96.21,29.7Z"/><path class="cls-1" d="M176.43,128.7a37.37,37.37,0,1,0-1.56,28.64A37.28,37.28,0,0,0,176.43,128.7Zm-22.84,18.36a13.88,13.88,0,0,1-7.9,7.09,13.74,13.74,0,0,1-10.5-.58,13.91,13.91,0,0,1-7.09-7.9,13.69,13.69,0,0,1,.59-10.5,13.86,13.86,0,0,1,7.89-7.09,13.8,13.8,0,0,1,17,19Z"/></g></g></svg>