<svg xmlns="http://www.w3.org/2000/svg" viewBox="0 0 853.07 152.17"><defs><style>.cls-1{fill:#378ba5;}</style></defs><g id="Layer_2" data-name="Layer 2"><g id="Layer_1-2" data-name="Layer 1"><path class="cls-1" d="M57.72,82.87,61,81a35,35,0,0,1,35.86,0h0l3.22,1.87a21.71,21.71,0,0,0-5.91-19.2l0,0a21.61,21.61,0,0,0-30.44,0l0,0a21.46,21.46,0,0,0-6.27,15.22,22.41,22.41,0,0,0,.35,4"/><path class="cls-1" d="M125.52,97.57a51.24,51.24,0,0,0,1.88-5.65,50.23,50.23,0,0,0-84-48.53v0A50.12,50.12,0,0,0,28.69,78.89a50.9,50.9,0,0,0,1.68,13,52,52,0,0,0,1.88,5.65l12.63-7.29c-.23-.7-.44-1.4-.63-2.11a35.74,35.74,0,0,1,9.28-34.61l0,0a35.8,35.8,0,0,1,50.66,0l0,0a35.72,35.72,0,0,1,10.51,25.33,36.23,36.23,0,0,1-1.22,9.28c-.19.71-.41,1.41-.64,2.11Z"/><path class="cls-1" d="M19.76,104.79a63.87,63.87,0,0,1-3.22-9.17A64.52,64.52,0,0,1,33.25,33.28v0a64.56,64.56,0,0,1,108,62.37,65.11,65.11,0,0,1-3.22,9.17L150.51,112A78.89,78.89,0,1,0,7.26,112Z"/><path class="cls-1" d="M121.8,145.42A92.92,92.92,0,0,1,105,152.17l-19-11-3.54-2.05-3.54-2-3.54,2-3.54,2.05-19,11A92.33,92.33,0,0,1,36,145.41l15.34-8.85h0l24-13.87,3.56-2.06,3.56,2.06,23,13.29h0Z"/><path class="cls-1" d="M146.67,126.64c-.61.65-1.23,1.28-1.86,1.91a93.63,93.63,0,0,1-9.31,8.15l-13.66-7.88h0l-43-24.8L43.52,124.42l-7.6,4.39-13.66,7.88A91,91,0,0,1,13,128.55c-.63-.63-1.25-1.27-1.86-1.91l12.83-7.41,7.48-4.32L75.2,89.64a7.12,7.12,0,0,1,7.22-.06l51.41,29.66h0Z"/><path class="cls-1" d="M182,117.31,192.08,101c8.8,5.82,18.45,8.8,26.39,8.8,4.69,0,6.82-1.42,6.82-4.11v-.29c0-3-4.26-4.25-12.35-6.53-15.19-4-27.25-9.08-27.25-24.55V74c0-16.32,13.06-25.41,30.8-25.41,11.21,0,22.85,3.27,31.65,8.94l-9.23,17C231,70.2,222.31,67.5,216.2,67.5c-4.11,0-6.24,1.56-6.24,3.69v.28c0,3,4.4,4.4,12.49,6.81,15.18,4.26,27.25,9.51,27.25,24.42V103c0,16.89-12.63,25.69-31.37,25.69A61.89,61.89,0,0,1,182,117.31Z"/><path class="cls-1" d="M261.32,23.36h27V127h-27Z"/><path class="cls-1" d="M299.5,105v-.29c0-15.89,12.06-24.12,30.08-24.12a58.62,58.62,0,0,1,18.45,3V82.26c0-8-5-12.49-15.32-12.49A54,54,0,0,0,311.56,74L306,55a77.15,77.15,0,0,1,31.09-6c13.76,0,23.13,3.26,29.23,9.37,5.82,5.67,8.23,13.62,8.23,24.41V127H347.89V119c-5.25,5.82-12.49,9.65-22.56,9.65C310.71,128.67,299.5,120.29,299.5,105Zm48.82-5.82V95.6a28.19,28.19,0,0,0-10.51-2c-7.8,0-12.34,3.84-12.34,9.51v.29c0,5.25,4,8.37,9.51,8.37C342.78,111.78,348.32,106.81,348.32,99.15Z"/><path class="cls-1" d="M385.21,88.93v-.28c0-21.72,16.89-40,41.15-40,15.76,0,26.26,6.81,32.79,17.18L440.84,79.42c-3.69-5.11-7.8-8.09-14.33-8.09-8.66,0-15.05,7.66-15.05,17v.29c0,9.93,6.25,17.45,15.33,17.45,6.39,0,10.5-3,14.76-7.95l18,13.06c-7.1,10.5-17.32,17.6-34.21,17.6A39.62,39.62,0,0,1,385.21,88.93Z"/><path class="cls-1" d="M469.07,23.36h27V75.87L516.9,50.18h30.51L520.73,81l27.39,46H518.46L503,100.85,496,108.94v18h-27Z"/><path class="cls-1" d="M554.64,50.18h27V60.69c5-6.39,12.07-12.21,22.85-12.21,10.22,0,18,4.54,22.15,12.49,6.67-7.66,14.47-12.49,25.68-12.49,16.33,0,26.26,10.22,26.26,28.1V127h-27V85.24c0-8.37-4.11-12.77-10.5-12.77S630,76.87,630,85.24V127H603V85.24c0-8.37-4.12-12.77-10.51-12.77s-10.93,4.4-10.93,12.77V127h-27Z"/><path class="cls-1" d="M692.43,23.36h28.1V43.23h-28.1ZM693,50.18h27V127H693Z"/><path class="cls-1" d="M735,50.18h27V61c5-6.39,12.07-12.49,23-12.49,16.32,0,26.11,10.79,26.11,28.24V127h-27V85.38c0-8.37-4.4-12.91-10.79-12.91S762,77,762,85.38V127H735Z"/><path class="cls-1" d="M825,23.36h28.11V43.23H825Zm.57,26.82h27V127h-27Z"/></g></g></svg>