<svg xmlns="http://www.w3.org/2000/svg" viewBox="0 0 1147.19 193.72"><defs><style>.cls-1{fill:#fff;}</style></defs><g id="Layer_2" data-name="Layer 2"><g id="Layer_1-2" data-name="Layer 1"><path class="cls-1" d="M322.38,151a27.83,27.83,0,0,1-8.51,10.46,38.24,38.24,0,0,1-12.8,6.15,58.09,58.09,0,0,1-15.74,2.06,73.34,73.34,0,0,1-45-15.84l12.71-19.54a71.06,71.06,0,0,0,17.1,9.38,46.43,46.43,0,0,0,15.94,3.13q6.45,0,9.48-2.15a6.66,6.66,0,0,0,3-5.67v-.39a5.63,5.63,0,0,0-1.76-4.11,14.94,14.94,0,0,0-4.79-3,69.66,69.66,0,0,0-6.94-2.44c-2.61-.79-5.35-1.63-8.21-2.54a113.28,113.28,0,0,1-11.05-3.82,39.25,39.25,0,0,1-10.06-5.86,28.51,28.51,0,0,1-7.33-8.9A26.91,26.91,0,0,1,245.65,95v-.39A30.82,30.82,0,0,1,256.89,70,35.08,35.08,0,0,1,269,63.51a50.42,50.42,0,0,1,15-2.15,67.25,67.25,0,0,1,20.23,3.23,74.76,74.76,0,0,1,18.86,8.89L311.72,94a93.32,93.32,0,0,0-15.24-7.14,39.89,39.89,0,0,0-13.1-2.64c-3.65,0-6.39.69-8.21,2a6.24,6.24,0,0,0-2.74,5.19v.38a5.13,5.13,0,0,0,1.76,3.82,19.47,19.47,0,0,0,4.69,3.12,61.65,61.65,0,0,0,6.75,2.84c2.54.91,5.24,1.83,8.11,2.74q5.47,1.75,11.14,4.2a46.17,46.17,0,0,1,10.17,6,29.78,29.78,0,0,1,7.43,8.6,24.34,24.34,0,0,1,2.93,12.32v.39A34.9,34.9,0,0,1,322.38,151Z"/><path class="cls-1" d="M348.08,167.7V25h29.71V167.7Z"/><path class="cls-1" d="M467.13,167.7V156.36A41.33,41.33,0,0,1,454,166q-7.62,3.61-18.57,3.62a46.43,46.43,0,0,1-14-2.06,32.73,32.73,0,0,1-11.43-6.15,29.36,29.36,0,0,1-7.72-10.07,31.59,31.59,0,0,1-2.84-13.78v-.39a32.83,32.83,0,0,1,3.13-14.86,28.45,28.45,0,0,1,8.7-10.36,39,39,0,0,1,13.29-6.16,66.48,66.48,0,0,1,17.1-2,73.32,73.32,0,0,1,14,1.17,88.91,88.91,0,0,1,11.63,3.13v-1.76q0-9.37-5.67-14.27t-16.81-4.89a69.72,69.72,0,0,0-15.15,1.47,102.89,102.89,0,0,0-13.78,4.2l-7.43-22.67a115.93,115.93,0,0,1,18-6.06,94.32,94.32,0,0,1,22.67-2.35q24.44,0,35.58,11.93t11.14,33.23V167.7Zm.58-42.22a45.66,45.66,0,0,0-8.69-2.84,47.32,47.32,0,0,0-10.27-1.07q-9.58,0-15.05,3.71A12.19,12.19,0,0,0,428.23,136v.4a11,11,0,0,0,4.49,9.38q4.5,3.33,11.73,3.32,10.56,0,16.91-5.08a16.23,16.23,0,0,0,6.35-13.29Z"/><path class="cls-1" d="M596.34,164.67q-9.78,5.37-25.41,5.38a55,55,0,0,1-21.8-4.3,52.65,52.65,0,0,1-28.64-28.84,54.27,54.27,0,0,1-4.1-21v-.39a55,55,0,0,1,4.1-21.11A54.33,54.33,0,0,1,531.83,77a52.85,52.85,0,0,1,17.3-11.73A55.86,55.86,0,0,1,571.32,61q14.85,0,24.63,4.69a55.4,55.4,0,0,1,17.2,12.9L595,98.11a48.58,48.58,0,0,0-10.46-8.41q-5.37-3.12-13.39-3.12a23,23,0,0,0-10.26,2.25,25.37,25.37,0,0,0-8,6.15,27.92,27.92,0,0,0-5.27,9.09,32.49,32.49,0,0,0-1.86,11.05v.39a33.89,33.89,0,0,0,1.86,11.34,26.86,26.86,0,0,0,5.37,9.18,25.4,25.4,0,0,0,8.41,6.16,25.83,25.83,0,0,0,10.95,2.25,26.82,26.82,0,0,0,13-3,55,55,0,0,0,11-8.11l17.4,17.59A66.87,66.87,0,0,1,596.34,164.67Z"/><path class="cls-1" d="M700.53,167.7l-27.37-42.81-10.36,11V167.7H633.09V25H662.8v76l34.8-38.11h35.58L693.3,104.17l41.24,63.53Z"/><path class="cls-1" d="M879,167.7V109.4q0-10.53-4.5-15.9t-12.9-5.36q-8.4,0-13.19,5.36t-4.79,15.9v58.3H813.91V109.4q0-10.53-4.5-15.9t-12.9-5.36q-8.41,0-13.2,5.36t-4.78,15.9v58.3H748.81V62.93h29.72v15a63.28,63.28,0,0,1,5.57-6.41,39.09,39.09,0,0,1,6.74-5.41,33.46,33.46,0,0,1,8.31-3.74A39,39,0,0,1,827.3,65.3a29.27,29.27,0,0,1,11.63,12.41A47.9,47.9,0,0,1,854.17,65.2,42.06,42.06,0,0,1,873.33,61q16.62,0,26,9.78t9.39,28.73V167.7Z"/><path class="cls-1" d="M935.1,51.39V25h31.28V51.39Zm.79,116.31V62.93H965.6V167.7Z"/><path class="cls-1" d="M1059.82,167.7V109.4q0-10.53-4.69-15.9t-13.29-5.36q-8.61,0-13.59,5.36t-5,15.9v58.3H993.55V62.93h29.72v15a63.28,63.28,0,0,1,5.57-6.41,39.09,39.09,0,0,1,6.74-5.41,33.76,33.76,0,0,1,8.21-3.74A34.61,34.61,0,0,1,1054,61q17,0,26.29,10.36t9.28,28.54V167.7Z"/><path class="cls-1" d="M1115.92,51.39V25h31.27V51.39Zm.78,116.31V62.93h29.72V167.7Z"/><path class="cls-1" d="M46.92,72.92a7.58,7.58,0,0,1,.53-.92,12.6,12.6,0,0,0-16-16.34,12.63,12.63,0,0,0-7.19,6.46,8.9,8.9,0,0,1-.68,1.15A80.73,80.73,0,0,0,62.08,169.79,8.12,8.12,0,1,1,55,184.41,97,97,0,0,1,9.57,55a8.65,8.65,0,0,1,.87-1.4,28.86,28.86,0,0,1,37.72-12h0A28.86,28.86,0,0,1,61.66,80h0a8.67,8.67,0,0,1-.6,1,39.31,39.31,0,0,0,11.42,46.65A8.13,8.13,0,0,1,62.3,140.4,55.59,55.59,0,0,1,46.92,72.92Z"/><path class="cls-1" d="M101.2,152.39a6.25,6.25,0,0,1-1.06,0,12.59,12.59,0,0,0,3,25,10,10,0,0,1,1.34,0,80.72,80.72,0,0,0,73-86.55,8.12,8.12,0,1,1,16.2-1.19,97,97,0,0,1-89.36,104.05,7.55,7.55,0,0,1-1.65,0A28.87,28.87,0,0,1,73.42,167h0A28.84,28.84,0,0,1,100,136.07h0a8,8,0,0,1,1.2,0,39.28,39.28,0,0,0,34.68-33.21,8.13,8.13,0,1,1,16.07,2.46,55.58,55.58,0,0,1-50.74,47.06Z"/><path class="cls-1" d="M142.88,65.65a8.51,8.51,0,0,1,.54.92,12.59,12.59,0,0,0,20.12-15.1,8.88,8.88,0,0,1-.66-1.16,80.71,80.71,0,0,0-111.47-20,8.12,8.12,0,0,1-9.13-13.43,97,97,0,0,1,134.8,25.36,7.27,7.27,0,0,1,.78,1.45,28.85,28.85,0,0,1-8.44,38.68h0a28.86,28.86,0,0,1-40.06-7.56h0a9.83,9.83,0,0,1-.6-1A39.29,39.29,0,0,0,82.67,60.38a8.13,8.13,0,1,1-5.92-15.15,55.58,55.58,0,0,1,66.13,20.42Z"/><path class="cls-1" d="M121.26,88.45a25.7,25.7,0,1,0-1.08,19.68A25.67,25.67,0,0,0,121.26,88.45Zm-15.7,12.62a9.49,9.49,0,0,1-17.52-1,9.4,9.4,0,0,1,.4-7.21A9.55,9.55,0,0,1,93.87,88a9.4,9.4,0,0,1,7.21.4A9.55,9.55,0,0,1,106,93.85,9.42,9.42,0,0,1,105.56,101.07Z"/></g></g></svg>